<svg width="117" height="32" viewBox="0 0 117 32" fill="none" xmlns="http://www.w3.org/2000/svg">
<path fill-rule="evenodd" clip-rule="evenodd" d="M38.8441 10.8802V19.3189H48.1088V10.8802H48.1007C48.1063 10.7855 48.1091 10.6906 48.1091 10.5958C48.1091 7.97751 46.0351 5.85501 43.4767 5.85501C40.9183 5.85501 38.8444 7.97751 38.8444 10.5958C38.8444 10.6906 38.8472 10.7855 38.8527 10.8802H38.8441ZM50.7019 10.7337C50.7026 10.7507 50.7029 10.7678 50.7029 10.7849V20.7278L50.7029 20.7412L50.7029 20.7545V27.4723C50.7029 28.2054 50.1222 28.7997 49.4058 28.7997C48.6895 28.7997 48.1088 28.2054 48.1088 27.4723V22.1634H38.8441V27.4723C38.8441 28.2054 38.2634 28.7997 37.5471 28.7997C36.8307 28.7997 36.25 28.2054 36.25 27.4723V10.7849C36.25 10.7645 36.2505 10.7442 36.2513 10.7241C36.2506 10.6813 36.2503 10.6385 36.2503 10.5958C36.2503 6.5113 39.4856 3.2002 43.4767 3.2002C47.4678 3.2002 50.7032 6.5113 50.7032 10.5958C50.7032 10.6417 50.7028 10.6877 50.7019 10.7337ZM57.5269 28.7998H55.6133C54.897 28.7998 54.3163 28.2055 54.3163 27.4724C54.3163 26.7393 54.897 26.145 55.6133 26.145H56.2617V5.85501H55.6133C54.897 5.85501 54.3163 5.26071 54.3163 4.5276C54.3163 3.7945 54.897 3.2002 55.6133 3.2002H59.5045C60.2208 3.2002 60.8016 3.7945 60.8016 4.5276C60.8016 5.26071 60.2208 5.85501 59.5045 5.85501H58.8558V26.145H59.5045C60.2208 26.145 60.8016 26.7393 60.8016 27.4724C60.8016 28.2055 60.2208 28.7998 59.5045 28.7998H57.5906C57.58 28.8001 57.5694 28.8002 57.5587 28.8002C57.5481 28.8002 57.5374 28.8001 57.5269 28.7998ZM70.9431 4.54285V22.2659C70.9431 23.0075 70.3573 23.6086 69.6345 23.6086C68.9118 23.6086 68.3259 23.0075 68.3259 22.2659V4.54285C68.3259 3.80132 68.9118 3.2002 69.6345 3.2002C70.3573 3.2002 70.9431 3.80132 70.9431 4.54285ZM69.8524 25.7121C70.6354 25.7121 71.3038 25.4281 71.8574 24.86C72.4111 24.2919 72.6879 23.6062 72.6879 22.8028V4.54285C72.6879 3.80132 73.2738 3.2002 73.9965 3.2002C74.7193 3.2002 75.3052 3.80132 75.3052 4.54285V22.8028C75.3052 24.3477 74.7728 25.6664 73.7081 26.7588C72.6434 27.8512 71.3582 28.3974 69.8524 28.3974C69.1297 28.3974 68.5438 27.7963 68.5438 27.0547C68.5438 26.3132 69.1297 25.7121 69.8524 25.7121ZM84.8145 8.57075V5.88551H88.7403C89.4631 5.88551 90.0489 5.28438 90.0489 4.54285C90.0489 3.80132 89.4631 3.2002 88.7403 3.2002H78.2717C77.5489 3.2002 76.963 3.80132 76.963 4.54285C76.963 5.28438 77.5489 5.88551 78.2717 5.88551H82.1973V8.57075H81.7609C80.4359 8.57075 79.305 9.0514 78.3681 10.0127C77.4311 10.974 76.9627 12.1344 76.9627 13.4938V22.2659C76.9627 23.0074 77.5486 23.6085 78.2713 23.6085C78.994 23.6085 79.5799 23.0074 79.5799 22.2659V13.4938C79.5799 12.8759 79.7928 12.3484 80.2187 11.9115C80.6446 11.4745 81.1587 11.2561 81.7609 11.2561H82.1973V27.4575C82.1973 28.1991 82.7832 28.8002 83.5059 28.8002C84.2286 28.8002 84.8145 28.1991 84.8145 27.4575V11.2561H85.2506C85.8528 11.2561 86.3669 11.4745 86.7928 11.9115C87.2187 12.3484 87.4316 12.8759 87.4316 13.4938V22.2659C87.4316 23.0074 88.0175 23.6085 88.7402 23.6085C89.4629 23.6085 90.0488 23.0074 90.0488 22.2659V13.4938C90.0488 12.1344 89.5804 10.974 88.6435 10.0127C87.7065 9.0514 86.5756 8.57075 85.2506 8.57075H84.8145ZM98.3368 3.2002C97.6141 3.2002 97.028 3.80132 97.028 4.54285V8.12327C97.028 8.93895 96.747 9.63518 96.1848 10.212C95.6227 10.7887 94.9441 11.0771 94.1491 11.0771C93.4264 11.0771 92.8405 11.6782 92.8405 12.4198C92.8405 13.1613 93.4264 13.7624 94.1491 13.7624C95.2193 13.7624 96.179 13.4887 97.0282 12.9412V27.4575C97.0282 28.1991 97.6141 28.8002 98.3368 28.8002C99.0596 28.8002 99.6455 28.1991 99.6455 27.4575V4.54285C99.6455 3.80132 99.0596 3.2002 98.3368 3.2002ZM115.349 4.54285C115.349 5.40797 115.05 6.14639 114.454 6.75813C113.858 7.36985 113.138 7.67572 112.295 7.67572H109.678V9.01834H110.55C111.875 9.01834 113.006 9.49899 113.943 10.4603C114.88 11.4216 115.349 12.582 115.349 13.9414V16.6267C115.349 17.3683 114.763 17.9694 114.04 17.9694C113.317 17.9694 112.732 17.3683 112.732 16.6267V13.9414C112.732 13.3235 112.519 12.796 112.093 12.3591C111.667 11.9221 111.153 11.7037 110.55 11.7037H109.678V13.0463H110.55C111.032 13.0463 111.423 13.4471 111.423 13.9414C111.423 14.4358 111.032 14.8365 110.55 14.8365H109.678V15.2841H110.55C111.032 15.2841 111.423 15.6848 111.423 16.1792C111.423 16.6735 111.032 17.0743 110.55 17.0743L109.678 17.0743C109.678 17.8158 109.092 18.417 108.369 18.417C107.647 18.417 107.061 17.8159 107.061 17.0743H106.188C105.707 17.0743 105.316 16.6735 105.316 16.1792C105.316 15.6848 105.707 15.2841 106.188 15.2841H107.061V14.8365H106.188C105.707 14.8365 105.316 14.4358 105.316 13.9414C105.316 13.4471 105.707 13.0463 106.188 13.0463H107.061V11.7037H106.188C105.586 11.7037 105.072 11.9221 104.646 12.3591C104.22 12.796 104.007 13.3235 104.007 13.9414V16.6267C104.007 17.3683 103.422 17.9694 102.699 17.9694C101.976 17.9694 101.39 17.3683 101.39 16.6267V13.9414C101.39 12.582 101.859 11.4216 102.796 10.4603C103.732 9.49899 104.863 9.01834 106.188 9.01834H107.061V7.67572H102.699C101.976 7.67572 101.39 7.07459 101.39 6.33306C101.39 5.59153 101.976 4.99041 102.699 4.99041H107.061V4.54285C107.061 3.80132 107.647 3.2002 108.369 3.2002C109.092 3.2002 109.678 3.80132 109.678 4.54285V4.99041H112.295C112.416 4.99041 112.518 4.94671 112.604 4.85932C112.689 4.77193 112.731 4.66644 112.731 4.54285C112.731 3.80132 113.317 3.2002 114.04 3.2002C114.763 3.2002 115.349 3.80132 115.349 4.54285ZM114.04 19.4752H113.174C113.094 18.8131 112.543 18.3009 111.876 18.3009C111.209 18.3009 110.658 18.8131 110.577 19.4752H102.699C101.976 19.4752 101.39 20.0763 101.39 20.8179C101.39 21.5594 101.976 22.1605 102.699 22.1605H110.567L110.567 24.817C110.567 25.163 110.448 25.4584 110.209 25.7031C109.971 25.9478 109.683 26.0701 109.346 26.0701C108.623 26.0701 108.037 26.6712 108.037 27.4128C108.037 28.1543 108.623 28.7554 109.346 28.7554C110.406 28.7554 111.311 28.3709 112.06 27.6019C112.81 26.8329 113.184 25.9045 113.184 24.817V22.1605H114.04C114.763 22.1605 115.349 21.5594 115.349 20.8179C115.349 20.0763 114.763 19.4752 114.04 19.4752ZM101.413 24.6826C101.413 23.9411 101.999 23.34 102.722 23.34H105.883C106.606 23.34 107.192 23.9411 107.192 24.6827C107.192 25.4242 106.606 26.0253 105.883 26.0253L102.722 26.0254C101.999 26.0254 101.413 25.4241 101.413 24.6826Z" fill="#0A0A0A"/>
<path d="M18.967 3.45898H8.02386C7.4886 3.45898 7.05469 3.90996 7.05469 4.46626C7.05469 5.02257 7.4886 5.47354 8.02386 5.47354H18.967C19.5023 5.47354 19.9362 5.02257 19.9362 4.46626C19.9362 3.90996 19.5023 3.45898 18.967 3.45898Z" fill="#0A0A0A"/>
<path fill-rule="evenodd" clip-rule="evenodd" d="M10.0642 4.96008C10.0425 4.79892 10.0312 4.63426 10.0312 4.46688C10.0312 2.51982 11.55 0.941406 13.4234 0.941406H13.5753C15.4487 0.941406 16.9674 2.51982 16.9674 4.46688C16.9674 4.63428 16.9562 4.79896 16.9345 4.96014C15.8719 4.51098 14.7115 4.26432 13.4993 4.26432C12.2871 4.26432 11.1267 4.51096 10.0642 4.96008Z" fill="#0A0A0A"/>
<path fill-rule="evenodd" clip-rule="evenodd" d="M3.95229 19.4743C3.88038 18.6284 3.91225 17.7563 4.06039 16.8733L4.06297 16.858C4.11385 16.5547 4.15119 16.2491 4.17487 15.9422L4.36625 13.4611C4.23087 13.4411 4.09248 13.4307 3.95176 13.4307H3.82159C2.21581 13.4307 0.914062 14.7836 0.914062 16.4525C0.914062 18.1214 2.21581 19.4743 3.82159 19.4743L3.95229 19.4743Z" fill="#0A0A0A"/>
<path fill-rule="evenodd" clip-rule="evenodd" d="M23.0457 19.4736C23.1174 18.6282 23.0855 17.7567 22.9374 16.8743L22.9348 16.8589C22.884 16.5556 22.8466 16.25 22.8229 15.9431L22.6328 13.4784C22.7991 13.4477 22.9704 13.4316 23.1452 13.4316H23.2754C24.8812 13.4316 26.1829 14.7846 26.1829 16.4535C26.1829 18.1224 24.8812 19.4753 23.2754 19.4753H23.1452C23.1119 19.4753 23.0787 19.4747 23.0457 19.4736Z" fill="#0A0A0A"/>
<path d="M7.91712 15.7336C8.00942 16.039 8.33415 16.2125 8.64241 16.121L10.3709 15.6084C10.6792 15.517 10.8543 15.1953 10.762 14.8899C10.6697 14.5845 10.345 14.411 10.0367 14.5025L8.30816 15.0151C7.9999 15.1065 7.82482 15.4282 7.91712 15.7336Z" fill="#0A0A0A"/>
<path d="M16.2313 14.8899C16.139 15.1953 16.3141 15.5169 16.6224 15.6084L18.3509 16.121C18.6592 16.2125 18.9839 16.039 19.0762 15.7336C19.1685 15.4282 18.9934 15.1065 18.6851 15.0151L16.9566 14.5025C16.6483 14.411 16.3236 14.5845 16.2313 14.8899Z" fill="#0A0A0A"/>
<path d="M9.03906 21.8938C9.03906 22.3925 9.13041 22.8866 9.30822 23.3498L9.83177 24.7136L10.33 23.9961C10.7831 23.3436 11.3884 22.8216 12.0891 22.4792L12.8012 22.1311C13.3152 21.8799 13.7273 21.448 13.9647 20.9118C14.2933 20.1696 14.2528 19.3075 13.8563 18.6021L13.498 17.9648H12.8194C10.7316 17.9648 9.03906 19.7239 9.03906 21.8938Z" fill="#0A0A0A"/>
<path d="M17.957 21.9687C17.957 22.4182 17.8842 22.8644 17.7417 23.2888L17.2634 24.7126L16.6676 23.9207C16.2124 23.3155 15.6268 22.83 14.958 22.5031L14.1948 22.1301C13.6809 21.8789 13.2688 21.4471 13.0314 20.9108C12.7028 20.1686 12.7433 19.3065 13.1398 18.6011L13.4981 17.9639H14.1037C16.2318 17.9639 17.957 19.7569 17.957 21.9687Z" fill="#0A0A0A"/>
<path d="M11.7874 14.2449C10.8814 15.6641 11.8604 17.5604 13.4991 17.5604C15.1378 17.5604 16.1169 15.6641 15.2109 14.2449L14.7507 13.5242C14.4724 13.0882 14.0025 12.8262 13.4991 12.8262C12.9957 12.8262 12.5258 13.0882 12.2475 13.5242L11.7874 14.2449Z" fill="#0A0A0A"/>
<path d="M7.11339 11.0328C6.76463 11.819 6.76979 12.7255 7.1275 13.5073L7.55387 14.4391L7.58938 13.9218C7.65417 12.9776 8.38035 12.2285 9.28925 12.1683L9.43267 12.1588C9.78618 12.1353 10.119 11.9776 10.3679 11.7156L10.4763 11.6015C10.971 11.0806 10.971 10.2431 10.4763 9.72215C10.168 9.3976 9.72189 9.25864 9.2927 9.35349L8.79205 9.46413C8.10634 9.61566 7.52963 10.0946 7.23609 10.7562L7.11339 11.0328Z" fill="#0A0A0A"/>
<path d="M19.8827 11.0328C20.2315 11.819 20.2263 12.7255 19.8686 13.5073L19.4422 14.4391L19.4067 13.9218C19.3419 12.9776 18.6157 12.2285 17.7068 12.1683L17.5634 12.1588C17.2099 12.1353 16.877 11.9776 16.6282 11.7156L16.5198 11.6015C16.0251 11.0806 16.0251 10.2431 16.5198 9.72215C16.8281 9.3976 17.2742 9.25864 17.7034 9.35349L18.204 9.46413C18.8898 9.61566 19.4665 10.0946 19.76 10.7562L19.8827 11.0328Z" fill="#0A0A0A"/>
<path d="M3.9375 14.9426H5.2331V14.221C5.2331 13.4314 5.35545 12.6469 5.59546 11.8976L5.69331 11.5922C6.04631 10.4902 6.68878 9.51284 7.54814 8.77045C8.79463 7.69363 10.4077 7.18765 12.0193 7.36797L13.5491 7.53915V4.01367C8.24074 4.01367 3.9375 8.4861 3.9375 14.0031V14.9426Z" fill="#0A0A0A"/>
<path d="M11.0951 30.5269C6.46858 29.6848 3.20698 25.3387 3.54787 20.47L3.93843 14.8918H5.23403V21.7445C5.23403 22.3293 5.42534 22.8967 5.77655 23.3536L6.42711 24.1999C8.34986 26.7012 12.1094 26.3339 13.55 23.504V31.0586L11.4028 30.5885C11.3006 30.5661 11.198 30.5456 11.0951 30.5269Z" fill="#0A0A0A"/>
<path d="M23.1602 14.9426H21.8646V14.221C21.8646 13.4314 21.7422 12.6469 21.5022 11.8976L21.4043 11.5922C21.0514 10.4902 20.4089 9.51284 19.5495 8.77045C18.303 7.69363 16.6899 7.18765 15.0784 7.36797L13.5486 7.53915V4.01367C18.8569 4.01367 23.1602 8.4861 23.1602 14.0031V14.9426Z" fill="#0A0A0A"/>
<path d="M16.0025 30.5269C20.6291 29.6848 23.8907 25.3387 23.5498 20.47L23.1592 14.8918H21.8636V21.7445C21.8636 22.3293 21.6723 22.8967 21.3211 23.3536L20.6705 24.1999C18.7478 26.7012 14.9882 26.3339 13.5477 23.504V31.0586L15.6948 30.5885C15.797 30.5661 15.8996 30.5456 16.0025 30.5269Z" fill="#0A0A0A"/>
<path d="M23.1602 14.0031V14.9426H22.36V14.118C22.36 13.3954 22.2628 12.6764 22.0712 11.9818L21.9141 11.4124C21.555 10.1105 20.7852 8.9717 19.7285 8.17908C18.375 7.16391 16.6669 6.80253 15.0393 7.18701L13.5486 7.53915V4.01367C18.8569 4.01367 23.1602 8.4861 23.1602 14.0031Z" fill="#0A0A0A"/>
</svg>
